<?xml version="1.0" encoding="utf-8"?>
<COLLADA xmlns="http://www.collada.org/2005/11/COLLADASchema" version="1.4.1" xmlns:xsi="http://www.w3.org/2001/XMLSchema-instance">
  <asset>
    <contributor>
      <author>Blender User</author>
      <authoring_tool>Blender 4.4.3 commit date:2025-04-29, commit time:14:09, hash:802179c51ccc</authoring_tool>
    </contributor>
    <created>2026-03-15T15:42:27</created>
    <modified>2026-03-15T15:42:27</modified>
    <unit name="meter" meter="1"/>
    <up_axis>Z_UP</up_axis>
  </asset>
  <library_cameras>
    <camera id="Camera-camera" name="Camera">
      <optics>
        <technique_common>
          <perspective>
            <xfov sid="xfov">39.59775</xfov>
            <aspect_ratio>1.777778</aspect_ratio>
            <znear sid="znear">0.1</znear>
            <zfar sid="zfar">100</zfar>
          </perspective>
        </technique_common>
      </optics>
      <extra>
        <technique profile="blender">
          <shiftx sid="shiftx" type="float">0</shiftx>
          <shifty sid="shifty" type="float">0</shifty>
          <dof_distance sid="dof_distance" type="float">10</dof_distance>
        </technique>
      </extra>
    </camera>
  </library_cameras>
  <library_lights>
    <light id="Light-light" name="Light">
      <technique_common>
        <point>
          <color sid="color">1000 1000 1000</color>
          <constant_attenuation>1</constant_attenuation>
          <linear_attenuation>0</linear_attenuation>
          <quadratic_attenuation>0</quadratic_attenuation>
        </point>
      </technique_common>
      <extra>
        <technique profile="blender">
          <type sid="type" type="int">0</type>
          <flag sid="flag" type="int">0</flag>
          <mode sid="mode" type="int">2097153</mode>
          <red sid="red" type="float">1</red>
          <green sid="green" type="float">1</green>
          <blue sid="blue" type="float">1</blue>
          <energy sid="blender_energy" type="float">1000</energy>
          <spotsize sid="spotsize" type="float">75</spotsize>
          <spotblend sid="spotblend" type="float">0.15</spotblend>
          <clipsta sid="clipsta" type="float">0.04999995</clipsta>
          <clipend sid="clipend" type="float">40</clipend>
          <radius sid="radius" type="float">0.1</radius>
          <area_shape sid="area_shape" type="int">1</area_shape>
          <area_size sid="area_size" type="float">0.1</area_size>
          <area_sizey sid="area_sizey" type="float">0.1</area_sizey>
          <area_sizez sid="area_sizez" type="float">1</area_sizez>
        </technique>
      </extra>
    </light>
  </library_lights>
  <library_effects>
    <effect id="ISS_03_dull-effect">
      <profile_COMMON>
        <newparam sid="ISS_03_png-surface">
          <surface type="2D">
            <init_from>ISS_03_png</init_from>
          </surface>
        </newparam>
        <newparam sid="ISS_03_png-sampler">
          <sampler2D>
            <source>ISS_03_png-surface</source>
          </sampler2D>
        </newparam>
        <technique sid="common">
          <lambert>
            <emission>
              <color sid="emission">0 0 0 1</color>
            </emission>
            <diffuse>
              <texture texture="ISS_03_png-sampler" texcoord="Cylinder_020-mesh-map-0"/>
            </diffuse>
            <index_of_refraction>
              <float sid="ior">1.5</float>
            </index_of_refraction>
          </lambert>
        </technique>
      </profile_COMMON>
    </effect>
  </library_effects>
  <library_images>
    <image id="ISS_03_png" name="ISS_03_png">
      <init_from>../../textures/ISS_03.png</init_from>
    </image>
  </library_images>
  <library_materials>
    <material id="ISS_03_dull-material" name="ISS_03_dull">
      <instance_effect url="#ISS_03_dull-effect"/>
    </material>
  </library_materials>
  <library_geometries>
    <geometry id="Cylinder_020-mesh" name="Cylinder.020">
      <mesh>
        <source id="Cylinder_020-mesh-positions">
          <float_array id="Cylinder_020-mesh-positions-array" count="102">-0.1277515 4.46479e-7 -0.05291616 -0.1277514 0.2913628 0.05291616 -0.1277514 0.2913628 -0.05291616 -0.1277515 4.46824e-7 0.05291622 0.0529161 4.23256e-7 -0.1277514 -0.05291616 0.2913628 -0.1277514 0.05291616 0.2913628 -0.1277514 -0.05291622 4.36717e-7 -0.1277514 0.1277515 4.1398e-7 -0.05291616 0.1277515 0.2913628 -0.05291616 -0.05291616 0.2913628 0.1277514 -0.05291622 4.37548e-7 0.1277514 0.1277515 0.2913628 0.05291616 0.05291616 4.24087e-7 0.1277514 0.1277515 4.14324e-7 0.05291616 0.05291616 0.2913628 0.1277514 0.05291616 0.2913628 0.1277514 0.1277515 0.2913628 0.05291616 0 0.2913628 0 -0.05291616 0.2913628 0.1277514 -0.05291616 0.2913628 -0.1277514 -0.1277514 0.2913628 -0.05291616 0.1277515 0.2913628 -0.05291616 -0.1277514 0.2913628 0.05291616 0.05291616 0.2913628 -0.1277514 0.1277515 4.1398e-7 -0.05291616 0.1277515 4.14324e-7 0.05291616 0 4.49966e-7 0 0.05291616 4.24087e-7 0.1277514 -0.05291622 4.37548e-7 0.1277514 -0.1277515 4.46479e-7 -0.05291616 -0.05291622 4.36717e-7 -0.1277514 -0.1277515 4.46824e-7 0.05291622 0.0529161 4.23256e-7 -0.1277514</float_array>
          <technique_common>
            <accessor source="#Cylinder_020-mesh-positions-array" count="34" stride="3">
              <param name="X" type="float"/>
              <param name="Y" type="float"/>
              <param name="Z" type="float"/>
            </accessor>
          </technique_common>
        </source>
        <source id="Cylinder_020-mesh-normals">
          <float_array id="Cylinder_020-mesh-normals-array" count="102">-0.7169761 -0.630663 -0.2970008 -0.7169877 0.6306616 0.2969756 -0.7169721 0.6306931 -0.2969468 -0.716976 -0.6306612 0.297005 0.2969751 -0.6306613 -0.7169883 -0.2969672 0.6306635 -0.7169897 0.2970045 0.6306613 -0.7169761 -0.296947 -0.6306927 -0.7169722 0.7169941 -0.6306635 -0.2969564 0.7169767 0.6306928 -0.296936 -0.2970045 0.6306616 0.7169759 -0.2969645 -0.6306613 0.7169927 0.7169665 0.6306633 0.2970233 0.2970044 -0.6306614 0.7169761 0.7169536 -0.6306929 0.2969918 0.2969643 0.6306613 0.7169928 0.2971687 0.6298778 0.7175965 0.7175474 0.6298778 0.2972872 0 1 0 -0.297287 0.6298779 0.7175474 -0.297169 0.6298781 -0.7175962 -0.7175475 0.6298779 -0.2972869 0.7175963 0.6298778 -0.2971694 -0.7175964 0.6298779 0.2971689 0.2972868 0.6298777 -0.7175478 0.7175472 -0.6298781 -0.2972874 0.7175961 -0.6298781 0.2971693 -1.27197e-7 -1 0 0.2972866 -0.629878 0.7175475 -0.2971688 -0.6298779 0.7175964 -0.7175964 -0.6298779 -0.297169 -0.297287 -0.6298779 -0.7175474 -0.7175474 -0.6298779 0.2972872 0.2971684 -0.6298779 -0.7175965</float_array>
          <technique_common>
            <accessor source="#Cylinder_020-mesh-normals-array" count="34" stride="3">
              <param name="X" type="float"/>
              <param name="Y" type="float"/>
              <param name="Z" type="float"/>
            </accessor>
          </technique_common>
        </source>
        <source id="Cylinder_020-mesh-map-0">
          <float_array id="Cylinder_020-mesh-map-0-array" count="192">0.5953213 0.2803472 0.5953213 0.3004992 0.5953213 0.3004992 0.5953213 0.2803472 0.5953213 0.3004992 0.5953213 0.2803472 0.5828255 0.2803472 0.5901455 0.3004992 0.5828255 0.3004992 0.5828255 0.2803472 0.5901455 0.2803472 0.5901455 0.3004992 0.5953213 0.2803472 0.5901455 0.3004992 0.5901455 0.2803472 0.5953213 0.2803472 0.5953213 0.3004992 0.5901455 0.3004992 0.5828255 0.3004992 0.5776495 0.2803472 0.5828255 0.2803472 0.5776495 0.3004992 0.5776495 0.2803472 0.5828255 0.3004992 0.5953213 0.2803472 0.5901455 0.3004992 0.5953213 0.3004992 0.5901455 0.2803472 0.5901455 0.3004992 0.5953213 0.2803472 0.5776495 0.3004992 0.5828255 0.2803472 0.5776495 0.2803472 0.5828255 0.3004992 0.5828255 0.2803472 0.5776495 0.3004992 0.5901455 0.2803472 0.5828255 0.3004992 0.5901455 0.3004992 0.5901455 0.2803472 0.5828255 0.2803472 0.5828255 0.3004992 0.5776495 0.3004992 0.5776495 0.2803472 0.5776495 0.3004992 0.5776495 0.3004992 0.5776495 0.2803472 0.5776495 0.2803472 0.5205659 0.195751 0.5186693 0.1903244 0.5261681 0.1907483 0.5257443 0.1982471 0.5205659 0.195751 0.5261681 0.1907483 0.5317704 0.1857454 0.533667 0.1911721 0.5261681 0.1907483 0.5186693 0.1903244 0.5211654 0.185146 0.5261681 0.1907483 0.533667 0.1911721 0.5311709 0.1963505 0.5261681 0.1907483 0.5211654 0.185146 0.526592 0.1832492 0.5261681 0.1907483 0.5311709 0.1963505 0.5257443 0.1982471 0.5261681 0.1907483 0.526592 0.1832492 0.5317704 0.1857454 0.5261681 0.1907483 0.5211654 0.185146 0.5186693 0.1903244 0.5261681 0.1907483 0.5205659 0.195751 0.5257443 0.1982471 0.5261681 0.1907483 0.533667 0.1911721 0.5317704 0.1857454 0.5261681 0.1907483 0.5311709 0.1963505 0.533667 0.1911721 0.5261681 0.1907483 0.526592 0.1832492 0.5211654 0.185146 0.5261681 0.1907483 0.5257443 0.1982471 0.5311709 0.1963505 0.5261681 0.1907483 0.5317704 0.1857454 0.526592 0.1832492 0.5261681 0.1907483 0.5186693 0.1903244 0.5205659 0.195751 0.5261681 0.1907483</float_array>
          <technique_common>
            <accessor source="#Cylinder_020-mesh-map-0-array" count="96" stride="2">
              <param name="S" type="float"/>
              <param name="T" type="float"/>
            </accessor>
          </technique_common>
        </source>
        <vertices id="Cylinder_020-mesh-vertices">
          <input semantic="POSITION" source="#Cylinder_020-mesh-positions"/>
        </vertices>
        <triangles material="ISS_03_dull-material" count="32">
          <input semantic="VERTEX" source="#Cylinder_020-mesh-vertices" offset="0"/>
          <input semantic="NORMAL" source="#Cylinder_020-mesh-normals" offset="1"/>
          <input semantic="TEXCOORD" source="#Cylinder_020-mesh-map-0" offset="2" set="0"/>
          <p>0 0 0 1 1 1 2 2 2 3 3 3 1 1 4 0 0 5 4 4 6 5 5 7 6 6 8 4 4 9 7 7 10 5 5 11 0 0 12 5 5 13 7 7 14 0 0 15 2 2 16 5 5 17 6 6 18 8 8 19 4 4 20 9 9 21 8 8 22 6 6 23 3 3 24 10 10 25 1 1 26 11 11 27 10 10 28 3 3 29 12 12 30 13 13 31 14 14 32 15 15 33 13 13 34 12 12 35 11 11 36 15 15 37 10 10 38 11 11 39 13 13 40 15 15 41 12 12 42 8 8 43 9 9 44 12 12 45 14 14 46 8 8 47 16 16 48 17 17 49 18 18 50 19 19 51 16 16 52 18 18 53 20 20 54 21 21 55 18 18 56 17 17 57 22 22 58 18 18 59 21 21 60 23 23 61 18 18 62 22 22 63 24 24 64 18 18 65 23 23 66 19 19 67 18 18 68 24 24 69 20 20 70 18 18 71 25 25 72 26 26 73 27 27 74 28 28 75 29 29 76 27 27 77 30 30 78 31 31 79 27 27 80 32 32 81 30 30 82 27 27 83 33 33 84 25 25 85 27 27 86 29 29 87 32 32 88 27 27 89 31 31 90 33 33 91 27 27 92 26 26 93 28 28 94 27 27 95</p>
        </triangles>
      </mesh>
    </geometry>
  </library_geometries>
  <library_visual_scenes>
    <visual_scene id="Scene" name="Scene">
      <node id="_9_DEXTRE_014" name="29 DEXTRE.014" type="NODE">
        <matrix sid="transform">1 0 0 0 0 1 0 0 0 0 1 0 0 0 0 1</matrix>
        <instance_geometry url="#Cylinder_020-mesh" name="29 DEXTRE.014">
          <bind_material>
            <technique_common>
              <instance_material symbol="ISS_03_dull-material" target="#ISS_03_dull-material">
                <bind_vertex_input semantic="Cylinder_020-mesh-map-0" input_semantic="TEXCOORD" input_set="0"/>
              </instance_material>
            </technique_common>
          </bind_material>
        </instance_geometry>
      </node>
      <node id="Camera" name="Camera" type="NODE">
        <matrix sid="transform">0.6859207 -0.3240135 0.6515582 7.358891 0.7276763 0.3054208 -0.6141704 -6.925791 0 0.8953956 0.4452714 4.958309 0 0 0 1</matrix>
        <instance_camera url="#Camera-camera"/>
      </node>
      <node id="Light" name="Light" type="NODE">
        <matrix sid="transform">-0.2908646 -0.7711008 0.5663932 4.076245 0.9551712 -0.1998834 0.2183912 1.005454 -0.05518906 0.6045247 0.7946723 5.903862 0 0 0 1</matrix>
        <instance_light url="#Light-light"/>
      </node>
    </visual_scene>
  </library_visual_scenes>
  <scene>
    <instance_visual_scene url="#Scene"/>
  </scene>
</COLLADA>
