<?xml version="1.0" encoding="utf-8"?>
<COLLADA xmlns="http://www.collada.org/2005/11/COLLADASchema" version="1.4.1" xmlns:xsi="http://www.w3.org/2001/XMLSchema-instance">
  <asset>
    <contributor>
      <author>Blender User</author>
      <authoring_tool>Blender 4.4.3 commit date:2025-04-29, commit time:14:09, hash:802179c51ccc</authoring_tool>
    </contributor>
    <created>2026-03-15T15:43:58</created>
    <modified>2026-03-15T15:43:58</modified>
    <unit name="meter" meter="1"/>
    <up_axis>Z_UP</up_axis>
  </asset>
  <library_cameras>
    <camera id="Camera-camera" name="Camera">
      <optics>
        <technique_common>
          <perspective>
            <xfov sid="xfov">39.59775</xfov>
            <aspect_ratio>1.777778</aspect_ratio>
            <znear sid="znear">0.1</znear>
            <zfar sid="zfar">100</zfar>
          </perspective>
        </technique_common>
      </optics>
      <extra>
        <technique profile="blender">
          <shiftx sid="shiftx" type="float">0</shiftx>
          <shifty sid="shifty" type="float">0</shifty>
          <dof_distance sid="dof_distance" type="float">10</dof_distance>
        </technique>
      </extra>
    </camera>
  </library_cameras>
  <library_lights>
    <light id="Light-light" name="Light">
      <technique_common>
        <point>
          <color sid="color">1000 1000 1000</color>
          <constant_attenuation>1</constant_attenuation>
          <linear_attenuation>0</linear_attenuation>
          <quadratic_attenuation>0</quadratic_attenuation>
        </point>
      </technique_common>
      <extra>
        <technique profile="blender">
          <type sid="type" type="int">0</type>
          <flag sid="flag" type="int">0</flag>
          <mode sid="mode" type="int">2097153</mode>
          <red sid="red" type="float">1</red>
          <green sid="green" type="float">1</green>
          <blue sid="blue" type="float">1</blue>
          <energy sid="blender_energy" type="float">1000</energy>
          <spotsize sid="spotsize" type="float">75</spotsize>
          <spotblend sid="spotblend" type="float">0.15</spotblend>
          <clipsta sid="clipsta" type="float">0.04999995</clipsta>
          <clipend sid="clipend" type="float">40</clipend>
          <radius sid="radius" type="float">0.1</radius>
          <area_shape sid="area_shape" type="int">1</area_shape>
          <area_size sid="area_size" type="float">0.1</area_size>
          <area_sizey sid="area_sizey" type="float">0.1</area_sizey>
          <area_sizez sid="area_sizez" type="float">1</area_sizez>
        </technique>
      </extra>
    </light>
  </library_lights>
  <library_effects>
    <effect id="ISS_03_dull_001-effect">
      <profile_COMMON>
        <newparam sid="ISS_03_png-surface">
          <surface type="2D">
            <init_from>ISS_03_png</init_from>
          </surface>
        </newparam>
        <newparam sid="ISS_03_png-sampler">
          <sampler2D>
            <source>ISS_03_png-surface</source>
          </sampler2D>
        </newparam>
        <technique sid="common">
          <lambert>
            <emission>
              <color sid="emission">0 0 0 1</color>
            </emission>
            <diffuse>
              <texture texture="ISS_03_png-sampler" texcoord="Cylinder_020-mesh-map-0"/>
            </diffuse>
            <index_of_refraction>
              <float sid="ior">1.5</float>
            </index_of_refraction>
          </lambert>
        </technique>
      </profile_COMMON>
    </effect>
  </library_effects>
  <library_images>
    <image id="ISS_03_png" name="ISS_03_png">
      <init_from>../../textures/ISS_03.png</init_from>
    </image>
  </library_images>
  <library_materials>
    <material id="ISS_03_dull_001-material" name="ISS_03_dull.001">
      <instance_effect url="#ISS_03_dull_001-effect"/>
    </material>
  </library_materials>
  <library_geometries>
    <geometry id="Cylinder_001-mesh" name="Cylinder.001">
      <mesh>
        <source id="Cylinder_001-mesh-positions">
          <float_array id="Cylinder_001-mesh-positions-array" count="156">-0.2994297 0.2492579 0.1948853 -0.2994297 0.04031682 0.15152 -0.2994297 0.2492579 0.15152 -0.2994296 0.04031682 0.1948854 -0.3679919 0.2492579 0.1948853 -0.3679919 0.2492579 0.1515198 -0.3679919 0.04031682 0.15152 -0.3679919 0.04031682 0.1948854 -0.1249707 0.2352861 0.1276566 -0.1249707 0.01296651 0.1081684 -0.1249707 0.2352861 0.1081684 -0.1249707 0.01296651 0.1276568 -0.411702 0.2352861 0.1081684 -0.411702 0.2352861 0.1276566 -0.4117019 0.01296657 0.1081684 -0.4117019 0.01296657 0.1276568 -0.4318496 0.2300893 0.1630012 -0.4318495 0.06326699 -0.1124775 -0.4318495 0.2300893 -0.1124776 -0.4318495 0.06326699 0.1630012 -0.5416111 0.2300893 -0.1124776 -0.5416111 0.2300893 0.1630012 -0.5416111 0.06326699 -0.1124775 -0.5416111 0.06326699 0.1630012 -0.1948831 0.3157123 0.2019321 -0.1948831 0.2388812 -0.1119157 -0.1948831 0.3157123 -0.1119157 -0.1948831 0.2388812 0.2019321 -0.5771132 0.3157123 -0.1119157 -0.1948831 0.3157123 0.2019321 -0.1948831 0.3157123 -0.1119157 -0.5771132 0.3157123 0.2019321 -0.5771132 0.2388813 -0.1119157 -0.5771132 0.3157123 0.2019321 -0.5771132 0.3157123 -0.1119157 -0.5771132 0.2388813 0.2019321 -0.1671093 0.2172037 -0.1200162 -0.3964545 0.2172037 -0.1200162 -0.2817819 0.2615593 -0.1200162 -0.1196104 0.1101203 -0.1200162 -0.4439534 0.1101203 -0.1200162 -0.1671093 0.003036797 -0.1200162 -0.3964545 0.003036737 -0.1200162 -0.2817819 -0.04131865 -0.1200162 -0.3964545 0.2172037 0.1108945 -0.1671094 0.2172037 0.1108945 -0.281782 0.2615593 0.1108945 -0.4439535 0.1101203 0.1108945 -0.1196105 0.1101203 0.1108946 -0.1671094 0.003036797 0.1108946 -0.3964545 0.003036737 0.1108945 -0.281782 -0.04131841 0.1108945</float_array>
          <technique_common>
            <accessor source="#Cylinder_001-mesh-positions-array" count="52" stride="3">
              <param name="X" type="float"/>
              <param name="Y" type="float"/>
              <param name="Z" type="float"/>
            </accessor>
          </technique_common>
        </source>
        <source id="Cylinder_001-mesh-normals">
          <float_array id="Cylinder_001-mesh-normals-array" count="156">0.5773504 0.5773654 0.5773351 0.5773498 -0.5773653 -0.5773358 0.5773503 0.5773523 -0.5773484 0.5773505 -0.5773516 0.5773488 -0.5773395 0.5773571 0.5773542 -0.5773596 0.57736 -0.5773313 -0.5773395 -0.5773574 -0.5773541 -0.5773603 -0.5773602 0.5773304 0.5773454 0.5773472 0.5773584 0.5773559 -0.5773476 -0.5773475 0.5773431 0.5773431 -0.5773648 0.5773469 -0.5773566 0.5773473 -0.5773471 0.5773568 -0.5773469 -0.5773561 0.5773476 0.5773472 -0.5773453 -0.5773469 -0.5773587 -0.5773428 -0.577343 0.577365 0.5773564 0.5773293 0.5773651 0.5773493 -0.577351 -0.5773506 0.5773481 0.5773479 -0.5773548 0.5773601 -0.577331 0.5773599 -0.5773599 0.5773311 -0.57736 -0.5773491 0.5773509 0.5773508 -0.5773568 -0.5773292 -0.5773649 -0.577348 -0.5773481 0.5773547 0.5773608 0.5773607 0.5773295 0.5773358 -0.5773576 -0.5773574 0.577327 0.5773711 -0.5773527 0.5773416 -0.5773677 0.5773416 -0.5773915 0.577351 -0.5773084 0.5773915 0.577351 0.5773084 0.5773084 0.577351 -0.5773915 -0.5773084 0.577351 0.5773915 -0.5773318 -0.5773792 -0.5773398 -0.5773385 0.5773913 0.5773211 -0.5773535 0.5773831 -0.5773143 -0.5773549 -0.5773547 0.5773412 0.5354813 0.5620501 -0.6303646 -0.5354849 0.5620664 -0.6303471 3.41306e-6 0.7731658 -0.634204 0.7796488 -5.03267e-6 -0.626217 -0.7796531 2.10367e-7 -0.6262118 0.5354852 -0.5620617 -0.6303511 -0.5354741 -0.5620555 -0.6303658 3.7984e-6 -0.7731658 -0.6342041 -0.5354809 0.5620502 0.6303648 0.5354848 0.5620666 0.6303469 -3.63326e-6 0.7731657 0.6342041 -0.7796375 2.53015e-7 0.6262311 0.7796551 5.502e-6 0.6262092 0.5354908 -0.562067 0.6303415 -0.5354806 -0.5620509 0.6303645 -3.4681e-6 -0.7731656 0.6342044</float_array>
          <technique_common>
            <accessor source="#Cylinder_001-mesh-normals-array" count="52" stride="3">
              <param name="X" type="float"/>
              <param name="Y" type="float"/>
              <param name="Z" type="float"/>
            </accessor>
          </technique_common>
        </source>
        <source id="Cylinder_001-mesh-map-0">
          <float_array id="Cylinder_001-mesh-map-0-array" count="456">0.5362226 0.2073462 0.5372453 0.2052243 0.5372453 0.2052243 0.5362226 0.2073462 0.5362226 0.2073462 0.5372453 0.2052243 0.5395773 0.2089632 0.5372453 0.2052243 0.5406001 0.2068414 0.5395773 0.2089632 0.5362226 0.2073462 0.5372453 0.2052243 0.5406001 0.2068414 0.5395773 0.2089632 0.5406001 0.2068414 0.5395773 0.2089632 0.5395773 0.2089632 0.5406001 0.2068414 0.5362226 0.2073462 0.5406001 0.2068414 0.5372453 0.2052243 0.5362226 0.2073462 0.5395773 0.2089632 0.5406001 0.2068414 0.5372453 0.2052243 0.5406001 0.2068414 0.5372453 0.2052243 0.5372453 0.2052243 0.5406001 0.2068414 0.5406001 0.2068414 0.5395773 0.2089632 0.5362226 0.2073462 0.5395773 0.2089632 0.5395773 0.2089632 0.5362226 0.2073462 0.5362226 0.2073462 0.5292721 0.1999419 0.5297317 0.1989884 0.5297317 0.1989884 0.5292721 0.1999419 0.5292721 0.1999419 0.5297317 0.1989884 0.5437613 0.205751 0.5292721 0.1999419 0.5297317 0.1989884 0.5433017 0.2067046 0.5292721 0.1999419 0.5437613 0.205751 0.5437613 0.205751 0.5433017 0.2067046 0.5437613 0.205751 0.5433017 0.2067046 0.5433017 0.2067046 0.5437613 0.205751 0.5292721 0.1999419 0.5437613 0.205751 0.5297317 0.1989884 0.5292721 0.1999419 0.5433017 0.2067046 0.5437613 0.205751 0.5297317 0.1989884 0.5437613 0.205751 0.5437613 0.205751 0.5297317 0.1989884 0.5437613 0.205751 0.5297317 0.1989884 0.5433017 0.2067046 0.5292721 0.1999419 0.5433017 0.2067046 0.5433017 0.2067046 0.5292721 0.1999419 0.5292721 0.1999419 0.5434538 0.2089092 0.5499511 0.19543 0.5499511 0.19543 0.5434538 0.2089092 0.5434538 0.2089092 0.5499511 0.19543 0.5553217 0.1980189 0.5434538 0.2089092 0.5499511 0.19543 0.5488244 0.211498 0.5434538 0.2089092 0.5553217 0.1980189 0.5553217 0.1980189 0.5488244 0.211498 0.5553217 0.1980189 0.5488244 0.211498 0.5488244 0.211498 0.5553217 0.1980189 0.5434538 0.2089092 0.5553217 0.1980189 0.5499511 0.19543 0.5434538 0.2089092 0.5488244 0.211498 0.5553217 0.1980189 0.5499511 0.19543 0.5553217 0.1980189 0.5553217 0.1980189 0.5499511 0.19543 0.5553217 0.1980189 0.5499511 0.19543 0.5488244 0.211498 0.5434538 0.2089092 0.5488244 0.211498 0.5488244 0.211498 0.5434538 0.2089092 0.5434538 0.2089092 0.530941 0.2052252 0.5383433 0.1898686 0.5383433 0.1898686 0.530941 0.2052252 0.530941 0.2052252 0.5383433 0.1898686 0.5949347 0.238637 0.5789003 0.2170833 0.5959283 0.2178992 0.5779067 0.2378212 0.5789003 0.2170833 0.5949347 0.238637 0.5570456 0.1988837 0.5496433 0.2142403 0.5570456 0.1988837 0.5496433 0.2142403 0.5496433 0.2142403 0.5570456 0.1988837 0.530941 0.2052252 0.5570456 0.1988837 0.5383433 0.1898686 0.530941 0.2052252 0.5496433 0.2142403 0.5570456 0.1988837 0.5383433 0.1898686 0.5570456 0.1988837 0.5570456 0.1988837 0.5383433 0.1898686 0.5570456 0.1988837 0.5383433 0.1898686 0.5496433 0.2142403 0.530941 0.2052252 0.5496433 0.2142403 0.5496433 0.2142403 0.530941 0.2052252 0.530941 0.2052252 0.5371754 0.1888173 0.5483971 0.1942265 0.5427863 0.1915218 0.5348513 0.1876969 0.5483971 0.1942265 0.5371754 0.1888173 0.5348513 0.1876969 0.5507212 0.1953467 0.5483971 0.1942265 0.5371754 0.1888173 0.5507212 0.1953467 0.5348513 0.1876969 0.5371754 0.1888173 0.5483971 0.1942265 0.5507212 0.1953467 0.5427863 0.1915218 0.5483971 0.1942265 0.5371754 0.1888173 0.5429509 0.2055248 0.5317292 0.2001156 0.5373401 0.2028202 0.545275 0.2066451 0.5317292 0.2001156 0.5429509 0.2055248 0.545275 0.2066451 0.5294051 0.1989953 0.5317292 0.2001156 0.545275 0.2066451 0.5317292 0.2001156 0.5294051 0.1989953 0.5429509 0.2055248 0.5317292 0.2001156 0.545275 0.2066451 0.5429509 0.2055248 0.5373401 0.2028202 0.5317292 0.2001156 0.5371754 0.1888173 0.5373401 0.2028202 0.5427863 0.1915218 0.5317292 0.2001156 0.5373401 0.2028202 0.5371754 0.1888173 0.5373401 0.2028202 0.5371754 0.1888173 0.5427863 0.1915218 0.5373401 0.2028202 0.5317292 0.2001156 0.5371754 0.1888173 0.5429509 0.2055248 0.5427863 0.1915218 0.5483971 0.1942265 0.5429509 0.2055248 0.5373401 0.2028202 0.5427863 0.1915218 0.5427863 0.1915218 0.5429509 0.2055248 0.5483971 0.1942265 0.5373401 0.2028202 0.5429509 0.2055248 0.5427863 0.1915218 0.5317292 0.2001156 0.5348513 0.1876969 0.5371754 0.1888173 0.5317292 0.2001156 0.5294051 0.1989953 0.5348513 0.1876969 0.5483971 0.1942265 0.545275 0.2066451 0.5507212 0.1953467 0.5429509 0.2055248 0.545275 0.2066451 0.5483971 0.1942265 0.5294051 0.1989953 0.5371754 0.1888173 0.5348513 0.1876969 0.5294051 0.1989953 0.5317292 0.2001156 0.5371754 0.1888173 0.545275 0.2066451 0.5483971 0.1942265 0.5507212 0.1953467 0.545275 0.2066451 0.5429509 0.2055248 0.5483971 0.1942265</float_array>
          <technique_common>
            <accessor source="#Cylinder_001-mesh-map-0-array" count="228" stride="2">
              <param name="S" type="float"/>
              <param name="T" type="float"/>
            </accessor>
          </technique_common>
        </source>
        <vertices id="Cylinder_001-mesh-vertices">
          <input semantic="POSITION" source="#Cylinder_001-mesh-positions"/>
        </vertices>
        <triangles material="ISS_03_dull_001-material" count="76">
          <input semantic="VERTEX" source="#Cylinder_001-mesh-vertices" offset="0"/>
          <input semantic="NORMAL" source="#Cylinder_001-mesh-normals" offset="1"/>
          <input semantic="TEXCOORD" source="#Cylinder_001-mesh-map-0" offset="2" set="0"/>
          <p>0 0 0 1 1 1 2 2 2 0 0 3 3 3 4 1 1 5 4 4 6 2 2 7 5 5 8 4 4 9 0 0 10 2 2 11 6 6 12 4 4 13 5 5 14 7 7 15 4 4 16 6 6 17 3 3 18 6 6 19 1 1 20 3 3 21 7 7 22 6 6 23 1 1 24 5 5 25 2 2 26 1 1 27 6 6 28 5 5 29 7 7 30 0 0 31 4 4 32 7 7 33 3 3 34 0 0 35 8 8 36 9 9 37 10 10 38 8 8 39 11 11 40 9 9 41 12 12 42 8 8 43 10 10 44 13 13 45 8 8 46 12 12 47 14 14 48 13 13 49 12 12 50 15 15 51 13 13 52 14 14 53 11 11 54 14 14 55 9 9 56 11 11 57 15 15 58 14 14 59 10 10 60 14 14 61 12 12 62 9 9 63 14 14 64 10 10 65 15 15 66 8 8 67 13 13 68 15 15 69 11 11 70 8 8 71 16 16 72 17 17 73 18 18 74 16 16 75 19 19 76 17 17 77 20 20 78 16 16 79 18 18 80 21 21 81 16 16 82 20 20 83 22 22 84 21 21 85 20 20 86 23 23 87 21 21 88 22 22 89 19 19 90 22 22 91 17 17 92 19 19 93 23 23 94 22 22 95 18 18 96 22 22 97 20 20 98 17 17 99 22 22 100 18 18 101 23 23 102 16 16 103 21 21 104 23 23 105 19 19 106 16 16 107 24 24 108 25 25 109 26 26 110 24 24 111 27 27 112 25 25 113 28 28 114 29 29 115 30 30 116 31 31 117 29 29 118 28 28 119 32 32 120 33 33 121 34 34 122 35 35 123 33 33 124 32 32 125 27 27 126 32 32 127 25 25 128 27 27 129 35 35 130 32 32 131 26 26 132 32 32 133 34 34 134 25 25 135 32 32 136 26 26 137 35 35 138 24 24 139 33 33 140 35 35 141 27 27 142 24 24 143 36 36 144 37 37 145 38 38 146 39 39 147 37 37 148 36 36 149 39 39 150 40 40 151 37 37 152 41 41 153 40 40 154 39 39 155 41 41 156 42 42 157 40 40 158 43 43 159 42 42 160 41 41 161 44 44 162 45 45 163 46 46 164 47 47 165 45 45 166 44 44 167 47 47 168 48 48 169 45 45 170 47 47 171 49 49 172 48 48 173 50 50 174 49 49 175 47 47 176 50 50 177 51 51 178 49 49 179 41 41 180 51 51 181 43 43 182 49 49 183 51 51 184 41 41 185 46 46 186 36 36 187 38 38 188 46 46 189 45 45 190 36 36 191 44 44 192 38 38 193 37 37 194 44 44 195 46 46 196 38 38 197 43 43 198 50 50 199 42 42 200 51 51 201 50 50 202 43 43 203 45 45 204 39 39 205 36 36 206 45 45 207 48 48 208 39 39 209 42 42 210 47 47 211 40 40 212 50 50 213 47 47 214 42 42 215 48 48 216 41 41 217 39 39 218 48 48 219 49 49 220 41 41 221 47 47 222 37 37 223 40 40 224 47 47 225 44 44 226 37 37 227</p>
        </triangles>
      </mesh>
    </geometry>
  </library_geometries>
  <library_visual_scenes>
    <visual_scene id="Scene" name="Scene">
      <node id="_9_DEXTRE_014" name="29 DEXTRE.014" type="NODE">
        <matrix sid="transform">1 0 0 0 0 1 0 0 0 0 1 0 0 0 0 1</matrix>
        <instance_geometry url="#Cylinder_001-mesh" name="29 DEXTRE.014">
          <bind_material>
            <technique_common>
              <instance_material symbol="ISS_03_dull_001-material" target="#ISS_03_dull_001-material">
                <bind_vertex_input semantic="Cylinder_020-mesh-map-0" input_semantic="TEXCOORD" input_set="0"/>
              </instance_material>
            </technique_common>
          </bind_material>
        </instance_geometry>
      </node>
      <node id="Camera" name="Camera" type="NODE">
        <matrix sid="transform">0.6859207 -0.3240135 0.6515582 7.358891 0.7276763 0.3054208 -0.6141704 -6.925791 0 0.8953956 0.4452714 4.958309 0 0 0 1</matrix>
        <instance_camera url="#Camera-camera"/>
      </node>
      <node id="Light" name="Light" type="NODE">
        <matrix sid="transform">-0.2908646 -0.7711008 0.5663932 4.076245 0.9551712 -0.1998834 0.2183912 1.005454 -0.05518906 0.6045247 0.7946723 5.903862 0 0 0 1</matrix>
        <instance_light url="#Light-light"/>
      </node>
    </visual_scene>
  </library_visual_scenes>
  <scene>
    <instance_visual_scene url="#Scene"/>
  </scene>
</COLLADA>
