<?xml version="1.0" encoding="utf-8"?>
<COLLADA xmlns="http://www.collada.org/2005/11/COLLADASchema" version="1.4.1" xmlns:xsi="http://www.w3.org/2001/XMLSchema-instance">
  <asset>
    <contributor>
      <author>Blender User</author>
      <authoring_tool>Blender 4.4.3 commit date:2025-04-29, commit time:14:09, hash:802179c51ccc</authoring_tool>
    </contributor>
    <created>2026-03-15T15:57:35</created>
    <modified>2026-03-15T15:57:35</modified>
    <unit name="meter" meter="1"/>
    <up_axis>Z_UP</up_axis>
  </asset>
  <library_cameras>
    <camera id="Camera_001-camera" name="Camera.001">
      <optics>
        <technique_common>
          <perspective>
            <xfov sid="xfov">39.59775</xfov>
            <aspect_ratio>1.777778</aspect_ratio>
            <znear sid="znear">0.1</znear>
            <zfar sid="zfar">100</zfar>
          </perspective>
        </technique_common>
      </optics>
      <extra>
        <technique profile="blender">
          <shiftx sid="shiftx" type="float">0</shiftx>
          <shifty sid="shifty" type="float">0</shifty>
          <dof_distance sid="dof_distance" type="float">10</dof_distance>
        </technique>
      </extra>
    </camera>
    <camera id="Camera-camera" name="Camera">
      <optics>
        <technique_common>
          <perspective>
            <xfov sid="xfov">39.59775</xfov>
            <aspect_ratio>1.777778</aspect_ratio>
            <znear sid="znear">0.1</znear>
            <zfar sid="zfar">100</zfar>
          </perspective>
        </technique_common>
      </optics>
      <extra>
        <technique profile="blender">
          <shiftx sid="shiftx" type="float">0</shiftx>
          <shifty sid="shifty" type="float">0</shifty>
          <dof_distance sid="dof_distance" type="float">10</dof_distance>
        </technique>
      </extra>
    </camera>
  </library_cameras>
  <library_lights>
    <light id="Light_001-light" name="Light.001">
      <technique_common>
        <point>
          <color sid="color">1000 1000 1000</color>
          <constant_attenuation>1</constant_attenuation>
          <linear_attenuation>0</linear_attenuation>
          <quadratic_attenuation>0</quadratic_attenuation>
        </point>
      </technique_common>
      <extra>
        <technique profile="blender">
          <type sid="type" type="int">0</type>
          <flag sid="flag" type="int">0</flag>
          <mode sid="mode" type="int">2097153</mode>
          <red sid="red" type="float">1</red>
          <green sid="green" type="float">1</green>
          <blue sid="blue" type="float">1</blue>
          <energy sid="blender_energy" type="float">1000</energy>
          <spotsize sid="spotsize" type="float">75</spotsize>
          <spotblend sid="spotblend" type="float">0.15</spotblend>
          <clipsta sid="clipsta" type="float">0.04999995</clipsta>
          <clipend sid="clipend" type="float">40</clipend>
          <radius sid="radius" type="float">0.1</radius>
          <area_shape sid="area_shape" type="int">1</area_shape>
          <area_size sid="area_size" type="float">0.1</area_size>
          <area_sizey sid="area_sizey" type="float">0.1</area_sizey>
          <area_sizez sid="area_sizez" type="float">1</area_sizez>
        </technique>
      </extra>
    </light>
    <light id="Light-light" name="Light">
      <technique_common>
        <point>
          <color sid="color">1000 1000 1000</color>
          <constant_attenuation>1</constant_attenuation>
          <linear_attenuation>0</linear_attenuation>
          <quadratic_attenuation>0</quadratic_attenuation>
        </point>
      </technique_common>
      <extra>
        <technique profile="blender">
          <type sid="type" type="int">0</type>
          <flag sid="flag" type="int">0</flag>
          <mode sid="mode" type="int">2097153</mode>
          <red sid="red" type="float">1</red>
          <green sid="green" type="float">1</green>
          <blue sid="blue" type="float">1</blue>
          <energy sid="blender_energy" type="float">1000</energy>
          <spotsize sid="spotsize" type="float">75</spotsize>
          <spotblend sid="spotblend" type="float">0.15</spotblend>
          <clipsta sid="clipsta" type="float">0.04999995</clipsta>
          <clipend sid="clipend" type="float">40</clipend>
          <radius sid="radius" type="float">0.1</radius>
          <area_shape sid="area_shape" type="int">1</area_shape>
          <area_size sid="area_size" type="float">0.1</area_size>
          <area_sizey sid="area_sizey" type="float">0.1</area_sizey>
          <area_sizez sid="area_sizez" type="float">1</area_sizez>
        </technique>
      </extra>
    </light>
  </library_lights>
  <library_effects>
    <effect id="ISS_03_dull_001-effect">
      <profile_COMMON>
        <newparam sid="ISS_03_png-surface">
          <surface type="2D">
            <init_from>ISS_03_png</init_from>
          </surface>
        </newparam>
        <newparam sid="ISS_03_png-sampler">
          <sampler2D>
            <source>ISS_03_png-surface</source>
          </sampler2D>
        </newparam>
        <technique sid="common">
          <lambert>
            <emission>
              <color sid="emission">0 0 0 1</color>
            </emission>
            <diffuse>
              <texture texture="ISS_03_png-sampler" texcoord="Cylinder_014-mesh-map-0"/>
            </diffuse>
            <index_of_refraction>
              <float sid="ior">1.5</float>
            </index_of_refraction>
          </lambert>
        </technique>
      </profile_COMMON>
    </effect>
  </library_effects>
  <library_images>
    <image id="ISS_03_png" name="ISS_03_png">
      <init_from>../../textures/ISS_03.png</init_from>
    </image>
  </library_images>
  <library_materials>
    <material id="ISS_03_dull_001-material" name="ISS_03_dull.001">
      <instance_effect url="#ISS_03_dull_001-effect"/>
    </material>
  </library_materials>
  <library_geometries>
    <geometry id="Cylinder_014-mesh" name="Cylinder.014">
      <mesh>
        <source id="Cylinder_014-mesh-positions">
          <float_array id="Cylinder_014-mesh-positions-array" count="156">0.2994297 0.04031676 0.15152 0.2994298 0.2492579 0.1948853 0.2994298 0.2492579 0.1515198 0.2994297 0.04031676 0.1948854 0.367992 0.2492579 0.1948853 0.367992 0.2492579 0.1515198 0.3679919 0.04031676 0.15152 0.3679919 0.04031676 0.1948854 0.1249707 0.01296651 0.1081684 0.1249708 0.2352861 0.1276566 0.1249708 0.2352861 0.1081684 0.1249707 0.01296651 0.1276568 0.4117021 0.2352861 0.1081684 0.4117021 0.2352861 0.1276566 0.411702 0.01296657 0.1081684 0.411702 0.01296657 0.1276568 0.4318496 0.06326693 -0.1124775 0.4318497 0.2300893 0.1630012 0.4318497 0.2300893 -0.1124775 0.4318496 0.06326693 0.1630012 0.5416112 0.2300893 -0.1124775 0.5416113 0.2300893 0.1630012 0.5416112 0.06326693 -0.1124774 0.5416112 0.06326693 0.1630012 0.1948831 0.2388812 -0.1119157 0.1948831 0.3157123 0.2019321 0.1948832 0.3157123 -0.1119157 0.1948832 0.2388812 0.2019321 0.1948831 0.3157123 0.2019321 0.5771133 0.3157123 -0.1119157 0.1948832 0.3157123 -0.1119157 0.5771133 0.3157123 0.2019321 0.5771133 0.3157123 0.2019321 0.5771133 0.2388813 -0.1119156 0.5771133 0.3157123 -0.1119157 0.5771133 0.2388813 0.2019321 0.3964546 0.2172037 -0.1200162 0.1671094 0.2172037 -0.1200162 0.281782 0.2615593 -0.1200162 0.1196105 0.1101203 -0.120016 0.4439535 0.1101202 -0.1200162 0.1671094 0.003036797 -0.120016 0.3964546 0.003036737 -0.1200162 0.2817819 -0.04131865 -0.1200162 0.1671094 0.2172037 0.1108945 0.3964547 0.2172037 0.1108945 0.281782 0.2615593 0.1108945 0.1196106 0.1101203 0.1108946 0.4439535 0.1101203 0.1108945 0.1671094 0.003036797 0.1108945 0.3964546 0.003036737 0.1108945 0.281782 -0.04131865 0.1108945</float_array>
          <technique_common>
            <accessor source="#Cylinder_014-mesh-positions-array" count="52" stride="3">
              <param name="X" type="float"/>
              <param name="Y" type="float"/>
              <param name="Z" type="float"/>
            </accessor>
          </technique_common>
        </source>
        <source id="Cylinder_014-mesh-normals">
          <float_array id="Cylinder_014-mesh-normals-array" count="156">-0.5773497 -0.5773671 -0.5773341 -0.5773403 0.5773555 0.5773551 -0.5773492 0.5773519 -0.5773497 -0.5773605 -0.57736 0.5773304 0.5773496 0.5773672 0.5773341 0.5773604 0.57736 -0.5773305 0.5773401 -0.5773557 -0.577355 0.5773491 -0.5773522 0.5773496 -0.577356 -0.5773475 -0.5773473 -0.5773453 0.5773473 0.5773584 -0.5773429 0.5773432 -0.5773648 -0.577347 -0.5773565 0.5773473 0.5773472 0.5773566 -0.577347 0.5773561 0.5773474 0.5773473 0.5773454 -0.5773468 -0.5773587 0.5773429 -0.5773429 0.5773651 -0.5773493 -0.5773506 -0.577351 -0.5773565 0.5773293 0.5773651 -0.5773478 0.5773482 -0.577355 -0.5773602 -0.5773308 0.5773599 0.5773597 0.577331 -0.5773602 0.5773496 0.5773506 0.5773508 0.5773568 -0.5773293 -0.5773647 0.5773476 -0.5773485 0.5773547 -0.577336 -0.5773574 -0.5773575 -0.5773612 0.5773603 0.5773295 -0.5773268 0.5773715 -0.5773526 -0.5773412 -0.5773679 0.5773419 -0.5773085 0.5773509 0.5773914 0.5773084 0.5773511 -0.5773914 -0.5773913 0.5773511 -0.5773084 0.5773915 0.577351 0.5773084 0.5773386 0.5773913 0.5773211 0.5773319 -0.5773797 -0.5773394 0.577315 0.5773822 -0.5773537 0.5773549 -0.5773547 0.5773413 0.5354914 0.5620661 -0.6303417 -0.5354812 0.5620494 -0.6303653 -3.46811e-6 0.7731658 -0.6342042 -0.7796445 -2.02279e-7 -0.6262224 0.7796484 -5.39813e-6 -0.6262176 -0.535492 -0.5620614 -0.6303454 0.5354737 -0.5620557 -0.6303662 -4.27812e-6 -0.7731648 -0.6342052 -0.5354745 0.5620554 0.6303657 0.5354855 0.5620613 0.6303512 3.2951e-6 0.7731657 0.6342041 -0.7796527 0 0.6262122 0.7796487 5.16212e-6 0.6262173 -0.5354849 -0.5620669 0.6303467 0.535481 -0.5620504 0.6303645 3.3816e-6 -0.7731656 0.6342043</float_array>
          <technique_common>
            <accessor source="#Cylinder_014-mesh-normals-array" count="52" stride="3">
              <param name="X" type="float"/>
              <param name="Y" type="float"/>
              <param name="Z" type="float"/>
            </accessor>
          </technique_common>
        </source>
        <source id="Cylinder_014-mesh-map-0">
          <float_array id="Cylinder_014-mesh-map-0-array" count="456">0.5372453 0.2052243 0.5362226 0.2073462 0.5372453 0.2052243 0.5362226 0.2073462 0.5362226 0.2073462 0.5372453 0.2052243 0.5372453 0.2052243 0.5395773 0.2089632 0.5406001 0.2068414 0.5362226 0.2073462 0.5395773 0.2089632 0.5372453 0.2052243 0.5395773 0.2089632 0.5406001 0.2068414 0.5406001 0.2068414 0.5395773 0.2089632 0.5395773 0.2089632 0.5406001 0.2068414 0.5395773 0.2089632 0.5372453 0.2052243 0.5406001 0.2068414 0.5395773 0.2089632 0.5362226 0.2073462 0.5372453 0.2052243 0.5406001 0.2068414 0.5372453 0.2052243 0.5372453 0.2052243 0.5406001 0.2068414 0.5372453 0.2052243 0.5406001 0.2068414 0.5362226 0.2073462 0.5395773 0.2089632 0.5362226 0.2073462 0.5362226 0.2073462 0.5395773 0.2089632 0.5395773 0.2089632 0.5297317 0.1989884 0.5292721 0.1999419 0.5297317 0.1989884 0.5292721 0.1999419 0.5292721 0.1999419 0.5297317 0.1989884 0.5292721 0.1999419 0.5437613 0.205751 0.5297317 0.1989884 0.5292721 0.1999419 0.5433017 0.2067046 0.5437613 0.205751 0.5433017 0.2067046 0.5437613 0.205751 0.5437613 0.205751 0.5433017 0.2067046 0.5433017 0.2067046 0.5437613 0.205751 0.5437613 0.205751 0.5292721 0.1999419 0.5297317 0.1989884 0.5433017 0.2067046 0.5292721 0.1999419 0.5437613 0.205751 0.5437613 0.205751 0.5297317 0.1989884 0.5437613 0.205751 0.5437613 0.205751 0.5297317 0.1989884 0.5297317 0.1989884 0.5292721 0.1999419 0.5433017 0.2067046 0.5433017 0.2067046 0.5292721 0.1999419 0.5433017 0.2067046 0.5292721 0.1999419 0.5499511 0.19543 0.5434538 0.2089092 0.5499511 0.19543 0.5434538 0.2089092 0.5434538 0.2089092 0.5499511 0.19543 0.5434538 0.2089092 0.5553217 0.1980189 0.5499511 0.19543 0.5434538 0.2089092 0.5488244 0.211498 0.5553217 0.1980189 0.5488244 0.211498 0.5553217 0.1980189 0.5553217 0.1980189 0.5488244 0.211498 0.5488244 0.211498 0.5553217 0.1980189 0.5553217 0.1980189 0.5434538 0.2089092 0.5499511 0.19543 0.5488244 0.211498 0.5434538 0.2089092 0.5553217 0.1980189 0.5553217 0.1980189 0.5499511 0.19543 0.5553217 0.1980189 0.5553217 0.1980189 0.5499511 0.19543 0.5499511 0.19543 0.5434538 0.2089092 0.5488244 0.211498 0.5488244 0.211498 0.5434538 0.2089092 0.5488244 0.211498 0.5434538 0.2089092 0.5383433 0.1898686 0.530941 0.2052252 0.5383433 0.1898686 0.530941 0.2052252 0.530941 0.2052252 0.5383433 0.1898686 0.5789003 0.2170833 0.5949347 0.238637 0.5959283 0.2178992 0.5789003 0.2170833 0.5779067 0.2378212 0.5949347 0.238637 0.5496433 0.2142403 0.5570456 0.1988837 0.5570456 0.1988837 0.5496433 0.2142403 0.5496433 0.2142403 0.5570456 0.1988837 0.5570456 0.1988837 0.530941 0.2052252 0.5383433 0.1898686 0.5496433 0.2142403 0.530941 0.2052252 0.5570456 0.1988837 0.5570456 0.1988837 0.5383433 0.1898686 0.5570456 0.1988837 0.5570456 0.1988837 0.5383433 0.1898686 0.5383433 0.1898686 0.530941 0.2052252 0.5496433 0.2142403 0.5496433 0.2142403 0.530941 0.2052252 0.5496433 0.2142403 0.530941 0.2052252 0.5483971 0.1942265 0.5371754 0.1888173 0.5427863 0.1915218 0.5483971 0.1942265 0.5348513 0.1876969 0.5371754 0.1888173 0.5507212 0.1953467 0.5348513 0.1876969 0.5483971 0.1942265 0.5507212 0.1953467 0.5371754 0.1888173 0.5348513 0.1876969 0.5483971 0.1942265 0.5371754 0.1888173 0.5507212 0.1953467 0.5483971 0.1942265 0.5427863 0.1915218 0.5371754 0.1888173 0.5317292 0.2001156 0.5429509 0.2055248 0.5373401 0.2028202 0.5294051 0.1989953 0.5429509 0.2055248 0.5317292 0.2001156 0.5294051 0.1989953 0.545275 0.2066451 0.5429509 0.2055248 0.5317292 0.2001156 0.545275 0.2066451 0.5294051 0.1989953 0.5317292 0.2001156 0.5429509 0.2055248 0.545275 0.2066451 0.5373401 0.2028202 0.5429509 0.2055248 0.5317292 0.2001156 0.5373401 0.2028202 0.5371754 0.1888173 0.5427863 0.1915218 0.5373401 0.2028202 0.5317292 0.2001156 0.5371754 0.1888173 0.5371754 0.1888173 0.5373401 0.2028202 0.5427863 0.1915218 0.5317292 0.2001156 0.5373401 0.2028202 0.5371754 0.1888173 0.5427863 0.1915218 0.5429509 0.2055248 0.5483971 0.1942265 0.5373401 0.2028202 0.5429509 0.2055248 0.5427863 0.1915218 0.5429509 0.2055248 0.5427863 0.1915218 0.5483971 0.1942265 0.5429509 0.2055248 0.5373401 0.2028202 0.5427863 0.1915218 0.5348513 0.1876969 0.5317292 0.2001156 0.5371754 0.1888173 0.5294051 0.1989953 0.5317292 0.2001156 0.5348513 0.1876969 0.545275 0.2066451 0.5483971 0.1942265 0.5507212 0.1953467 0.545275 0.2066451 0.5429509 0.2055248 0.5483971 0.1942265 0.5317292 0.2001156 0.5348513 0.1876969 0.5371754 0.1888173 0.5317292 0.2001156 0.5294051 0.1989953 0.5348513 0.1876969 0.5429509 0.2055248 0.5507212 0.1953467 0.5483971 0.1942265 0.5429509 0.2055248 0.545275 0.2066451 0.5507212 0.1953467</float_array>
          <technique_common>
            <accessor source="#Cylinder_014-mesh-map-0-array" count="228" stride="2">
              <param name="S" type="float"/>
              <param name="T" type="float"/>
            </accessor>
          </technique_common>
        </source>
        <vertices id="Cylinder_014-mesh-vertices">
          <input semantic="POSITION" source="#Cylinder_014-mesh-positions"/>
        </vertices>
        <triangles material="ISS_03_dull_001-material" count="76">
          <input semantic="VERTEX" source="#Cylinder_014-mesh-vertices" offset="0"/>
          <input semantic="NORMAL" source="#Cylinder_014-mesh-normals" offset="1"/>
          <input semantic="TEXCOORD" source="#Cylinder_014-mesh-map-0" offset="2" set="0"/>
          <p>0 0 0 1 1 1 2 2 2 3 3 3 1 1 4 0 0 5 2 2 6 4 4 7 5 5 8 1 1 9 4 4 10 2 2 11 4 4 12 6 6 13 5 5 14 4 4 15 7 7 16 6 6 17 7 7 18 0 0 19 6 6 20 7 7 21 3 3 22 0 0 23 5 5 24 0 0 25 2 2 26 6 6 27 0 0 28 5 5 29 3 3 30 4 4 31 1 1 32 3 3 33 7 7 34 4 4 35 8 8 36 9 9 37 10 10 38 11 11 39 9 9 40 8 8 41 9 9 42 12 12 43 10 10 44 9 9 45 13 13 46 12 12 47 13 13 48 14 14 49 12 12 50 13 13 51 15 15 52 14 14 53 14 14 54 11 11 55 8 8 56 15 15 57 11 11 58 14 14 59 14 14 60 10 10 61 12 12 62 14 14 63 8 8 64 10 10 65 9 9 66 15 15 67 13 13 68 11 11 69 15 15 70 9 9 71 16 16 72 17 17 73 18 18 74 19 19 75 17 17 76 16 16 77 17 17 78 20 20 79 18 18 80 17 17 81 21 21 82 20 20 83 21 21 84 22 22 85 20 20 86 21 21 87 23 23 88 22 22 89 22 22 90 19 19 91 16 16 92 23 23 93 19 19 94 22 22 95 22 22 96 18 18 97 20 20 98 22 22 99 16 16 100 18 18 101 17 17 102 23 23 103 21 21 104 19 19 105 23 23 106 17 17 107 24 24 108 25 25 109 26 26 110 27 27 111 25 25 112 24 24 113 28 28 114 29 29 115 30 30 116 28 28 117 31 31 118 29 29 119 32 32 120 33 33 121 34 34 122 32 32 123 35 35 124 33 33 125 33 33 126 27 27 127 24 24 128 35 35 129 27 27 130 33 33 131 33 33 132 26 26 133 34 34 134 33 33 135 24 24 136 26 26 137 25 25 138 35 35 139 32 32 140 27 27 141 35 35 142 25 25 143 36 36 144 37 37 145 38 38 146 36 36 147 39 39 148 37 37 149 40 40 150 39 39 151 36 36 152 40 40 153 41 41 154 39 39 155 42 42 156 41 41 157 40 40 158 42 42 159 43 43 160 41 41 161 44 44 162 45 45 163 46 46 164 47 47 165 45 45 166 44 44 167 47 47 168 48 48 169 45 45 170 49 49 171 48 48 172 47 47 173 49 49 174 50 50 175 48 48 176 51 51 177 50 50 178 49 49 179 51 51 180 41 41 181 43 43 182 51 51 183 49 49 184 41 41 185 37 37 186 46 46 187 38 38 188 44 44 189 46 46 190 37 37 191 38 38 192 45 45 193 36 36 194 46 46 195 45 45 196 38 38 197 50 50 198 43 43 199 42 42 200 50 50 201 51 51 202 43 43 203 39 39 204 44 44 205 37 37 206 47 47 207 44 44 208 39 39 209 48 48 210 42 42 211 40 40 212 48 48 213 50 50 214 42 42 215 49 49 216 39 39 217 41 41 218 49 49 219 47 47 220 39 39 221 45 45 222 40 40 223 36 36 224 45 45 225 48 48 226 40 40 227</p>
        </triangles>
      </mesh>
    </geometry>
  </library_geometries>
  <library_visual_scenes>
    <visual_scene id="Scene" name="Scene">
      <node id="Light_001" name="Light.001" type="NODE">
        <matrix sid="transform">-0.2908646 -0.7711008 0.5663933 4.076245 0.9551712 -0.1998833 0.2183913 1.005454 -0.05518912 0.6045247 0.7946723 5.903862 0 0 0 1</matrix>
        <instance_light url="#Light_001-light"/>
      </node>
      <node id="Camera_001" name="Camera.001" type="NODE">
        <matrix sid="transform">0.6859207 -0.3240135 0.6515582 7.358891 0.7276763 0.3054209 -0.6141704 -6.925791 -4.01133e-9 0.8953956 0.4452714 4.958309 0 0 0 1</matrix>
        <instance_camera url="#Camera_001-camera"/>
      </node>
      <node id="_9_DEXTRE_008" name="29 DEXTRE.008" type="NODE">
        <matrix sid="transform">1 0 0 0 0 1 0 0 0 0 1 0 0 0 0 1</matrix>
        <instance_geometry url="#Cylinder_014-mesh" name="29 DEXTRE.008">
          <bind_material>
            <technique_common>
              <instance_material symbol="ISS_03_dull_001-material" target="#ISS_03_dull_001-material">
                <bind_vertex_input semantic="Cylinder_014-mesh-map-0" input_semantic="TEXCOORD" input_set="0"/>
              </instance_material>
            </technique_common>
          </bind_material>
        </instance_geometry>
      </node>
      <node id="Camera" name="Camera" type="NODE">
        <matrix sid="transform">0.6859207 -0.3240135 0.6515582 7.358891 0.7276763 0.3054208 -0.6141704 -6.925791 0 0.8953956 0.4452714 4.958309 0 0 0 1</matrix>
        <instance_camera url="#Camera-camera"/>
      </node>
      <node id="Light" name="Light" type="NODE">
        <matrix sid="transform">-0.2908646 -0.7711008 0.5663932 4.076245 0.9551712 -0.1998834 0.2183912 1.005454 -0.05518906 0.6045247 0.7946723 5.903862 0 0 0 1</matrix>
        <instance_light url="#Light-light"/>
      </node>
    </visual_scene>
  </library_visual_scenes>
  <scene>
    <instance_visual_scene url="#Scene"/>
  </scene>
</COLLADA>
